<svg id="line_icons" height="512" viewBox="0 0 74 74" width="512" xmlns="http://www.w3.org/2000/svg" data-name="line icons"><path d="m43.4 69.232h-11.962a3.864 3.864 0 0 1 -3.862-4.032v-8.045a1 1 0 0 1 2 0v8.045a1.878 1.878 0 0 0 1.862 2.034h11.962a2.454 2.454 0 0 0 2.485-2.034v-8.045a1 1 0 0 1 2 0v8.045a4.39 4.39 0 0 1 -4.485 4.032z"/><path d="m46.037 58.155h-16.612a2.008 2.008 0 0 1 -1.965-1.655 21.907 21.907 0 0 0 -5.5-10.473 20.952 20.952 0 1 1 31.543 0 21.91 21.91 0 0 0 -5.503 10.473 2.008 2.008 0 0 1 -1.963 1.655zm-8.319-44.864a18.944 18.944 0 0 0 -14.254 31.415 23.839 23.839 0 0 1 5.963 11.431l16.6.018a23.909 23.909 0 0 1 5.973-11.448 18.944 18.944 0 0 0 -13.017-31.375q-.634-.04-1.265-.041z"/><path d="m37.73 72.872a4.555 4.555 0 0 1 -4.548-4.55 1.078 1.078 0 0 1 1-1.087h7.1a1 1 0 0 1 1 1 4.574 4.574 0 0 1 -4.552 4.637zm-2.379-3.637a2.549 2.549 0 0 0 4.76 0z"/><path d="m27.2 62.559a1 1 0 0 1 -.1-1.995l20.907-2.142a1 1 0 1 1 .2 1.989l-20.907 2.142a.889.889 0 0 1 -.1.006z"/><path d="m27.354 66.668a1 1 0 0 1 -.1-2l20.753-2.126a1 1 0 1 1 .2 1.989l-20.751 2.132a.871.871 0 0 1 -.102.005z"/><path d="m37.652 8.968a1 1 0 0 1 -1-1v-4.1a1 1 0 0 1 2 0v4.1a1 1 0 0 1 -1 1z"/><path d="m25.641 12.229a1 1 0 0 1 -.868-.5l-2.047-3.548a1 1 0 0 1 1.732-1l2.048 3.548a1 1 0 0 1 -.865 1.5z"/><path d="m16.866 21.059a.992.992 0 0 1 -.5-.134l-3.546-2.049a1 1 0 1 1 1-1.731l3.547 2.048a1 1 0 0 1 -.5 1.866z"/><path d="m13.686 33.092h-4.1a1 1 0 1 1 0-2h4.1a1 1 0 0 1 0 2z"/><path d="m13.4 47.152a1 1 0 0 1 -.5-1.866l3.548-2.048a1 1 0 0 1 1 1.733l-3.548 2.048a1 1 0 0 1 -.5.133z"/><path d="m49.821 12.229a1 1 0 0 1 -.865-1.5l2.044-3.548a1 1 0 0 1 1.732 1l-2.048 3.548a1 1 0 0 1 -.863.5z"/><path d="m58.6 21.059a1 1 0 0 1 -.5-1.866l3.547-2.048a1 1 0 1 1 1 1.731l-3.547 2.049a.992.992 0 0 1 -.5.134z"/><path d="m65.872 33.092h-4.1a1 1 0 1 1 0-2h4.1a1 1 0 0 1 0 2z"/><path d="m62.062 47.152a1.007 1.007 0 0 1 -.5-.133l-3.546-2.048a1 1 0 1 1 1-1.733l3.546 2.048a1 1 0 0 1 -.5 1.866z"/><path d="m33.421 58.155a1 1 0 0 1 -.973-.773l-4.848-20.801a1 1 0 0 1 1.322-1.164l4.532 1.683 3.759-2.272a1 1 0 0 1 1.035 0l3.76 2.272 4.528-1.683a1 1 0 0 1 1.322 1.164l-4.844 20.8a1 1 0 0 1 -1.948-.454l4.422-18.989-3.236 1.2a1.007 1.007 0 0 1 -.866-.082l-3.656-2.203-3.654 2.208a1 1 0 0 1 -.866.082l-3.237-1.2 4.427 18.985a1 1 0 0 1 -.748 1.2 1.04 1.04 0 0 1 -.231.027z"/></svg>